<svg aria-hidden="true" style="position: absolute; width: 0; height: 0; overflow: hidden;" version="1.1" xmlns="http://www.w3.org/2000/svg" xmlns:xlink="http://www.w3.org/1999/xlink">
<defs>
<symbol id="icon-arrow-down" viewBox="0 0 32 32">
<path d="M14.416 24.464l-13.759-13.76c-0.876-0.875-0.876-2.294 0-3.169s2.294-0.875 3.169 0l12.175 12.175 12.174-12.175c0.875-0.875 2.294-0.875 3.169 0s0.875 2.294 0 3.169l-13.759 13.76c-0.438 0.437-1.011 0.656-1.584 0.656s-1.147-0.219-1.584-0.656z"></path>
</symbol>
<symbol id="icon-remove" viewBox="0 0 32 32">
<path fill="#536578" d="M32 16c0 8.837-7.163 16-16 16s-16-7.163-16-16c0-8.837 7.163-16 16-16s16 7.163 16 16z"></path>
<path fill="#142536" d="M25.927 8.206l-1.986-1.984-7.867 7.867-7.867-7.867-1.984 1.984 7.867 7.867-7.867 7.867 1.984 1.986 7.867-7.867 7.867 7.867 1.986-1.986-7.867-7.867z"></path>
</symbol>
<symbol id="icon-user" viewBox="0 0 32 32">
<path d="M18 22.082v-1.649c2.203-1.241 4-4.337 4-7.432 0-4.971 0-9-6-9s-6 4.029-6 9c0 3.096 1.797 6.191 4 7.432v1.649c-6.784 0.555-12 3.888-12 7.918h28c0-4.030-5.216-7.364-12-7.918z"></path>
</symbol>
</defs>
</svg>
